<svg width="32" height="32" viewBox="0 0 32 32" fill="none" xmlns="http://www.w3.org/2000/svg">
<path d="M24.0798 27.4268H6.99984C5.15984 27.4268 3.6665 25.9334 3.6665 24.0934V10.4668C3.6665 8.62676 5.15984 7.13342 6.99984 7.13342H24.0798C25.9198 7.13342 27.4132 8.62676 27.4132 10.4668V24.0934C27.4132 25.9468 25.9198 27.4268 24.0798 27.4268Z" stroke="white" stroke-width="1.5" stroke-miterlimit="10" stroke-linecap="round" stroke-linejoin="round"/>
<path d="M3.6665 12.0266V13.2133C3.6665 15.0533 5.15984 16.5466 6.99984 16.5466H24.0798C25.9198 16.5466 27.4132 15.0533 27.4132 13.2133V12.0266" stroke="white" stroke-width="1.5" stroke-miterlimit="10" stroke-linecap="round" stroke-linejoin="round"/>
<path d="M11.96 7.13329V6.33329C11.96 4.86663 13.16 3.66663 14.6266 3.66663H16.44C17.9066 3.66663 19.1066 4.86663 19.1066 6.33329V7.13329" stroke="white" stroke-width="1.5" stroke-miterlimit="10" stroke-linecap="round" stroke-linejoin="round"/>
<path d="M10.3066 14.2799V18.3066" stroke="white" stroke-width="1.5" stroke-miterlimit="10" stroke-linecap="round" stroke-linejoin="round"/>
<path d="M20.7734 14.2798V18.3065" stroke="white" stroke-width="1.5" stroke-miterlimit="10" stroke-linecap="round" stroke-linejoin="round"/>
</svg>
